# xmcd
#
# Track frame offsets: 
#        183
#        22405
#        53773
#        78065
#        101360
#        134058
#        159530
#        178463
#        196005
#        212160
#        230748
#        249670
#        260835
#        277203
#        297518
#        311205
#
# Disc length: 4417 seconds
#
# Revision: 9
# Processed by: cddbd v1.5.2PL0 Copyright (c) Steve Scherf et al.
# Submitted via: ExactAudioCopy v0.99pb5
#
DISCID=02113f10
DTITLE=Erasure - The Two Ring Circus
DYEAR=1987
DGENRE=Pop
TTITLE0=Sometimes (Erasure And Flood Mix)
TTITLE1=It Doesn't Have To Be (Mix By Pascal Gabriel)
TTITLE2=Victim of Love (Little Louie Vega Mix)
TTITLE3=Leave Me To Bleed (Vince Clarke/Eric Radcliffe Mix)
TTITLE4=Hideaway (Little Louie Vega Mix)
TTITLE5=Don't Dance  (Daniel Miller/Flood Mix)
TTITLE6=The Circus (Dave Powell Mix)
TTITLE7=If I Could (Orchestral Arr. and Thanks To Andrew Poppy)
TTITLE8=Spiralling (Orchestral Arr. and Thanks To Andrew Poppy)
TTITLE9=My Heart...So Blue (Orchestral Arr. and Thanks To Andrew Poppy)
TTITLE10=Victim Of Love (Live)
TTITLE11=Spiralling (Live)
TTITLE12=Sometimes (Live)
TTITLE13=Oh L'Amour (Live)
TTITLE14=Who Needs Love Like That (Live)
TTITLE15=Gimme Gimme Gimme (Live)
EXTD=
EXTT0=
EXTT1=
EXTT2=
EXTT3=
EXTT4=
EXTT5=
EXTT6=
EXTT7=
EXTT8=
EXTT9=
EXTT10=
EXTT11=
EXTT12=
EXTT13=
EXTT14=
EXTT15=
PLAYORDER=
